<?php echo '<?xml version="1.0" encoding="utf-8"?>';?>

<!-- Generator: Adobe Illustrator 18.0.0, SVG Export Plug-In . SVG Version: 6.00 Build 0)  -->
<!DOCTYPE svg PUBLIC "-//W3C//DTD SVG 1.1//EN" "http://www.w3.org/Graphics/SVG/1.1/DTD/svg11.dtd">
<svg version="1.1" id="Layer_1" xmlns="http://www.w3.org/2000/svg" xmlns:xlink="http://www.w3.org/1999/xlink" x="0px" y="0px"
	 viewBox="0 0 512 387" enable-background="new 0 0 512 387" xml:space="preserve">
<path d="M96.5,50v38.8h17.2c0,0,8.6,0.2,8.6,8.6s0,159.5,0,159.5s0.2,8.6-8.6,8.6s-17.2,0-17.2,0V300h94.8v-34.5h-21.6V106l56,194
	h38.8L325,101.7v163.8h-25.9V300h116.4v-34.5h-17.2c0,0-8.6,0.4-8.6-8.6c0-9,0-159.5,0-159.5s-0.2-8.6,8.6-8.6s17.2,0,17.2,0V50
	H294.8l-43.1,146.5L212.9,50H96.5z"/>
</svg>
