<?php echo '<?xml version="1.0" encoding="utf-8"?>';?>
<!-- Generator: Adobe Illustrator 18.1.0, SVG Export Plug-In . SVG Version: 6.00 Build 0)  -->
<!DOCTYPE svg PUBLIC "-//W3C//DTD SVG 1.1//EN" "http://www.w3.org/Graphics/SVG/1.1/DTD/svg11.dtd">
<svg version="1.1" id="Layer_1" xmlns="http://www.w3.org/2000/svg" xmlns:xlink="http://www.w3.org/1999/xlink" x="0px" y="0px"
	 viewBox="0 0 60 60" enable-background="new 0 0 60 60" xml:space="preserve">
<g>
	<path d="M39.3,27.6c-1,0-1.9,0.3-2.4,0.9c-0.6,0.6-0.9,1.4-1.1,2.4h7c-0.1-1.1-0.4-1.9-1.1-2.5
		C41.1,27.9,40.2,27.6,39.3,27.6z"/>
	<path d="M24.5,27c0.6-0.3,0.9-1,0.9-1.8c0-1-0.4-1.6-1.1-1.9c-0.7-0.2-1.5-0.3-2.5-0.3h-4.6v4.6h5.1
		C23.2,27.5,23.9,27.3,24.5,27z"/>
	<path d="M24.5,31.3C24,31.1,23.3,31,22.4,31h-5.2v5.6h5.1c0.9,0,1.6-0.1,2.1-0.4c0.9-0.5,1.4-1.3,1.4-2.6
		C25.8,32.5,25.4,31.8,24.5,31.3z"/>
	<path d="M30,0C13.4,0,0,13.4,0,30c0,16.6,13.4,30,30,30c16.6,0,30-13.4,30-30C60,13.4,46.6,0,30,0z M34.7,20.2h9
		v2.6h-9V20.2z M29.3,37.3c-0.4,0.7-0.9,1.2-1.5,1.7c-0.7,0.5-1.5,0.9-2.4,1.1c-0.9,0.2-1.9,0.3-3,0.3H13v-21h10.2
		c2.6,0,4.4,0.8,5.4,2.2c0.6,0.9,1,2,1,3.2c0,1.3-0.3,2.3-1,3.1c-0.4,0.4-0.9,0.8-1.6,1.2c1.1,0.4,1.9,1,2.4,1.9
		c0.5,0.8,0.8,1.9,0.8,3.1C30.2,35.1,29.9,36.3,29.3,37.3z M47,33.6H35.7c0.1,1.6,0.6,2.7,1.6,3.3c0.6,0.4,1.4,0.6,2.2,0.6
		c0.9,0,1.7-0.2,2.3-0.7c0.3-0.3,0.6-0.6,0.8-1.1h4.2c-0.1,0.9-0.6,1.9-1.5,2.8c-1.4,1.5-3.3,2.3-5.8,2.3c-2.1,0-3.9-0.6-5.5-1.9
		c-1.6-1.3-2.4-3.4-2.4-6.2c0-2.7,0.7-4.8,2.1-6.2c1.4-1.4,3.3-2.2,5.6-2.2c1.4,0,2.6,0.2,3.7,0.7c1.1,0.5,2,1.3,2.7,2.3
		c0.6,0.9,1.1,2,1.2,3.2C47,31.2,47,32.3,47,33.6z"/>
</g>
</svg>
