<?php echo '<?xml version="1.0" encoding="utf-8"?>';?>
<!-- Generator: Adobe Illustrator 18.1.0, SVG Export Plug-In . SVG Version: 6.00 Build 0)  -->
<!DOCTYPE svg PUBLIC "-//W3C//DTD SVG 1.1//EN" "http://www.w3.org/Graphics/SVG/1.1/DTD/svg11.dtd">
<svg version="1.1" id="Layer_1" xmlns="http://www.w3.org/2000/svg" xmlns:xlink="http://www.w3.org/1999/xlink" x="0px" y="0px"
	 viewBox="0 0 60 60" enable-background="new 0 0 60 60" xml:space="preserve">
<g>
	<path d="M29.2,25.2c-2.5-4.5-5.2-8.1-5.4-8.4c-4.1,1.9-7.1,5.6-8,10.1C16.2,27,22.2,27.1,29.2,25.2z"/>
	<path d="M31,30.1c0.2-0.1,0.4-0.1,0.6-0.2c-0.4-0.8-0.8-1.7-1.2-2.5c-7.5,2.2-14.7,2.1-14.9,2.1c0,0.2,0,0.3,0,0.5
		c0,3.7,1.4,7.1,3.7,9.7c0,0,0,0,0,0S23.2,32.6,31,30.1z"/>
	<path d="M26.5,15.9C26.5,15.9,26.5,15.9,26.5,15.9C26.5,15.9,26.5,15.9,26.5,15.9C26.5,15.9,26.5,15.9,26.5,15.9z"
		/>
	<path d="M21.1,41.5C21.1,41.5,21.1,41.4,21.1,41.5c-0.1-0.1-0.2-0.2-0.3-0.3C20.9,41.4,21.1,41.5,21.1,41.5z"/>
	<path d="M39.6,19.1c-2.6-2.3-5.9-3.6-9.6-3.6c-1.2,0-2.3,0.1-3.4,0.4c0.2,0.3,2.9,3.9,5.4,8.5
		C37.5,22.3,39.6,19.2,39.6,19.1z"/>
	<path d="M30,0C13.4,0,0,13.4,0,30c0,16.6,13.4,30,30,30c16.6,0,30-13.4,30-30C60,13.4,46.6,0,30,0z M46.7,33.4
		c-0.2,1.1-0.6,2.2-1,3.2c-0.4,1-1,2-1.6,2.9c-0.6,0.9-1.3,1.7-2.1,2.5c-0.8,0.8-1.6,1.5-2.5,2.1c-0.9,0.6-1.9,1.1-2.9,1.6
		c-1,0.4-2.1,0.8-3.2,1C32.3,46.9,31.2,47,30,47c-1.2,0-2.3-0.1-3.4-0.3c-1.1-0.2-2.2-0.6-3.2-1c-1-0.4-2-1-2.9-1.6
		c-0.9-0.6-1.7-1.3-2.5-2.1c-0.8-0.8-1.5-1.6-2.1-2.5c-0.6-0.9-1.1-1.9-1.6-2.9c-0.4-1-0.8-2.1-1-3.2C13.1,32.3,13,31.2,13,30
		c0-1.2,0.1-2.3,0.3-3.4c0.2-1.1,0.6-2.2,1-3.2c0.4-1,1-2,1.6-2.9c0.6-0.9,1.3-1.7,2.1-2.5c0.8-0.8,1.6-1.5,2.5-2.1
		c0.9-0.6,1.9-1.1,2.9-1.6c1-0.4,2.1-0.8,3.2-1c1.1-0.2,2.3-0.3,3.4-0.3c1.2,0,2.3,0.1,3.4,0.3c1.1,0.2,2.2,0.6,3.2,1
		c1,0.4,2,1,2.9,1.6c0.9,0.6,1.7,1.3,2.5,2.1c0.8,0.8,1.5,1.6,2.1,2.5c0.6,0.9,1.1,1.9,1.6,2.9c0.4,1,0.8,2.1,1,3.2
		c0.2,1.1,0.3,2.3,0.3,3.4C47,31.2,46.9,32.3,46.7,33.4z"/>
	<path d="M33.1,26.5c0.3,0.7,0.7,1.4,1,2.1c0.1,0.3,0.2,0.5,0.3,0.7c5-0.6,9.9,0.4,10.1,0.5c0-3.4-1.3-6.6-3.3-9.1
		C41.2,20.8,38.9,24.2,33.1,26.5z"/>
	<path d="M35.3,31.7c1.9,5.2,2.7,9.5,2.8,10.4c3.3-2.2,5.6-5.7,6.2-9.7C44,32.2,40,30.9,35.3,31.7z"/>
	<path d="M32.5,32.4c-8.6,3-11.4,9-11.4,9.1c2.5,1.9,5.6,3.1,8.9,3.1c2,0,3.9-0.4,5.7-1.2
		C35.5,42.1,34.6,37.7,32.5,32.4C32.5,32.4,32.5,32.4,32.5,32.4z"/>
</g>
</svg>
