<?php echo '<?xml version="1.0" encoding="utf-8"?>';?>
<!-- Generator: Adobe Illustrator 18.1.0, SVG Export Plug-In . SVG Version: 6.00 Build 0)  -->
<!DOCTYPE svg PUBLIC "-//W3C//DTD SVG 1.1//EN" "http://www.w3.org/Graphics/SVG/1.1/DTD/svg11.dtd">
<svg version="1.1" id="Layer_1" xmlns="http://www.w3.org/2000/svg" xmlns:xlink="http://www.w3.org/1999/xlink" x="0px" y="0px"
	 viewBox="0 0 60 60" enable-background="new 0 0 60 60" xml:space="preserve">
<path d="M30,60C13.4,60,0,46.6,0,30C0,13.4,13.4,0,30,0c16.6,0,30,13.4,30,30C60,46.6,46.6,60,30,60 M21.8,29.3h3.5
	V47h6.6V29.3h5.2l0.4-5.1h-5.6v-4c0-1.4,1.2-1.9,2.6-1.9c1.4,0,2.8,0.4,2.8,0.4l0.9-5.2c0,0-1.9-0.6-6.3-0.6c-2.7,0-4.3,1-5.5,2.6
	c-1.1,1.4-1.1,3.8-1.1,5.3v3.4h-3.5V29.3z"/>
</svg>
