<?php echo '<?xml version="1.0" encoding="utf-8"?>';?>
<!-- Generator: Adobe Illustrator 18.1.0, SVG Export Plug-In . SVG Version: 6.00 Build 0)  -->
<!DOCTYPE svg PUBLIC "-//W3C//DTD SVG 1.1//EN" "http://www.w3.org/Graphics/SVG/1.1/DTD/svg11.dtd">
<svg version="1.1" id="Layer_1" xmlns="http://www.w3.org/2000/svg" xmlns:xlink="http://www.w3.org/1999/xlink" x="0px" y="0px"
	 viewBox="0 0 60 60" enable-background="new 0 0 60 60" xml:space="preserve">
<g>
	<path d="M32.5,21c-0.5-3.6-3-6.4-5.8-6.5c-2.7-0.1-4.5,2.6-4.1,6.2c0.5,3.6,3,6.5,5.8,6.6
		C31.1,27.4,33,24.6,32.5,21z"/>
	<path d="M30.7,34.6c-0.8-0.3-1.7-0.4-2.6-0.4c-4,0-7.7,2.5-7.7,5.5c0,3.1,2.9,5.6,7,5.6c5.7,0,7.7-2.4,7.7-5.5
		c0-0.4,0-0.7-0.1-1.1C34.5,37,32.9,36.2,30.7,34.6z"/>
	<path d="M30,0C13.4,0,0,13.4,0,30c0,16.6,13.4,30,30,30c16.6,0,30-13.4,30-30C60,13.4,46.6,0,30,0z M27.4,47
		c-5.8,0-10.8-2.4-10.8-6.2c0-3.9,4.5-7.6,10.4-7.6c0.6,0,1.2,0,1.8,0c-0.8-0.8-1.4-1.7-1.4-2.9c0-0.7,0.2-1.4,0.5-2
		c-0.3,0-0.6,0-1,0c-4.8,0-8-3.4-8-7.7c0-4.1,4.4-7.7,9.2-7.7h10.5l-2.4,1.7h-3.3c2.2,0.9,3.4,3.4,3.4,6.1c0,2.2-1.2,4.1-3,5.5
		c-1.7,1.3-2,1.9-2,3c0,1,1.8,2.6,2.8,3.3c2.8,2,3.7,3.8,3.7,6.8C37.7,43.2,34.1,47,27.4,47z M49.4,30.9h-4.1V35H42v-4.1h-4.1v-3.3
		H42v-4.1h3.3v4.1h4.1V30.9z"/>
</g>
</svg>
