<?php echo '<?xml version="1.0" encoding="utf-8"?>';?>
<!-- Generator: Adobe Illustrator 18.1.0, SVG Export Plug-In . SVG Version: 6.00 Build 0)  -->
<!DOCTYPE svg PUBLIC "-//W3C//DTD SVG 1.1//EN" "http://www.w3.org/Graphics/SVG/1.1/DTD/svg11.dtd">
<svg version="1.1" id="Layer_1" xmlns="http://www.w3.org/2000/svg" xmlns:xlink="http://www.w3.org/1999/xlink" x="0px" y="0px"
	 viewBox="0 0 60 60" enable-background="new 0 0 60 60" xml:space="preserve">
<path d="M30,0C13.4,0,0,13.4,0,30c0,16.6,13.4,30,30,30c16.6,0,30-13.4,30-30C60,13.4,46.6,0,30,0z M20.5,44.2h-6.6
	V23h6.6V44.2z M17,20.4L17,20.4c-2.4,0-4-1.6-4-3.7c0-2.1,1.6-3.7,4-3.7c2.4,0,4,1.6,4,3.7C21,18.7,19.5,20.4,17,20.4z M47,44.2
	h-7.5v-11c0-2.9-1.2-4.8-3.8-4.8c-2,0-3.1,1.3-3.6,2.6c-0.2,0.5-0.2,1.1-0.2,1.7v11.5h-7.4c0,0,0.1-19.5,0-21.2H32v3.3
	c0.4-1.5,2.8-3.5,6.6-3.5c4.7,0,8.4,3.1,8.4,9.6V44.2z"/>
</svg>
