<?php echo '<?xml version="1.0" encoding="utf-8"?>';?>
<!-- Generator: Adobe Illustrator 18.1.0, SVG Export Plug-In . SVG Version: 6.00 Build 0)  -->
<!DOCTYPE svg PUBLIC "-//W3C//DTD SVG 1.1//EN" "http://www.w3.org/Graphics/SVG/1.1/DTD/svg11.dtd">
<svg version="1.1" id="Layer_1" xmlns="http://www.w3.org/2000/svg" xmlns:xlink="http://www.w3.org/1999/xlink" x="0px" y="0px"
	 viewBox="0 0 60 60" enable-background="new 0 0 60 60" xml:space="preserve">
<path d="M30,60C13.4,60,0,46.6,0,30C0,13.4,13.4,0,30,0c16.6,0,30,13.4,30,30C60,46.6,46.6,60,30,60 M30,12.9
	c-9.4,0-17,7.6-17,17c0,7,4.2,12.9,10.2,15.6c0-1.2,0-2.6,0.3-3.9c0.3-1.4,2.2-9.3,2.2-9.3s-0.5-1.1-0.5-2.7c0-2.5,1.5-4.4,3.3-4.4
	c1.5,0,2.3,1.2,2.3,2.6c0,1.6-1,3.9-1.5,6c-0.4,1.8,0.9,3.3,2.7,3.3c3.2,0,5.4-4.1,5.4-9c0-3.7-2.5-6.5-7.1-6.5
	c-5.2,0-8.4,3.8-8.4,8.1c0,1.5,0.4,2.5,1.1,3.3c0.3,0.4,0.4,0.5,0.2,0.9c-0.1,0.3-0.3,1.1-0.3,1.4c-0.1,0.4-0.5,0.6-0.9,0.4
	c-2.4-1-3.5-3.6-3.5-6.5c0-4.8,4.1-10.6,12.2-10.6c6.5,0,10.8,4.7,10.8,9.7c0,6.7-3.7,11.7-9.2,11.7c-1.8,0-3.6-1-4.2-2.1
	c0,0-1,3.9-1.2,4.7c-0.4,1.3-1.1,2.6-1.7,3.6c1.5,0.5,3.1,0.7,4.8,0.7c9.4,0,17-7.6,17-17C47,20.5,39.4,12.9,30,12.9"/>
</svg>
