<?php echo '<?xml version="1.0" encoding="utf-8"?>';?>
<!-- Generator: Adobe Illustrator 18.1.0, SVG Export Plug-In . SVG Version: 6.00 Build 0)  -->
<!DOCTYPE svg PUBLIC "-//W3C//DTD SVG 1.1//EN" "http://www.w3.org/Graphics/SVG/1.1/DTD/svg11.dtd">
<svg version="1.1" id="Layer_1" xmlns="http://www.w3.org/2000/svg" xmlns:xlink="http://www.w3.org/1999/xlink" x="0px" y="0px"
	 viewBox="0 0 60 60" enable-background="new 0 0 60 60" xml:space="preserve">
<path d="M30,0C13.4,0,0,13.4,0,30c0,16.6,13.4,30,30,30c16.6,0,30-13.4,30-30C60,13.4,46.6,0,30,0z M8.7,35.8
	c0,0.1-0.1,0.2-0.2,0.2c-0.1,0-0.2-0.1-0.2-0.2L8,33.4L8.3,31c0-0.1,0.1-0.2,0.2-0.2c0.1,0,0.2,0.1,0.2,0.2l0.4,2.4L8.7,35.8z
	 M10.3,37.3c0,0.1-0.1,0.2-0.2,0.2c-0.1,0-0.2-0.1-0.2-0.2l-0.4-3.9l0.4-4c0-0.1,0.1-0.2,0.2-0.2c0.1,0,0.2,0.1,0.2,0.2l0.5,4
	L10.3,37.3z M12.1,37.9c0,0.1-0.1,0.2-0.2,0.2c-0.1,0-0.2-0.1-0.2-0.2l-0.4-4.5c0,0,0.4-4.7,0.4-4.7c0-0.1,0.1-0.2,0.2-0.2
	c0.1,0,0.2,0.1,0.2,0.2l0.5,4.7L12.1,37.9z M13.9,38.1c0,0.1-0.1,0.3-0.3,0.3c-0.1,0-0.2-0.1-0.3-0.3l-0.4-4.7l0.4-4.8
	c0-0.1,0.1-0.3,0.3-0.3c0.1,0,0.2,0.1,0.3,0.3l0.4,4.8L13.9,38.1z M15.6,38.1c0,0.2-0.1,0.3-0.3,0.3c-0.2,0-0.3-0.1-0.3-0.3
	l-0.4-4.7l0.4-4.5c0-0.2,0.1-0.3,0.3-0.3c0.2,0,0.3,0.1,0.3,0.3l0.4,4.5L15.6,38.1z M17.5,38.1L17.5,38.1c0,0.2-0.2,0.3-0.3,0.3
	c-0.2,0-0.3-0.1-0.3-0.3l-0.3-4.7l0.3-7.3c0-0.2,0.2-0.3,0.3-0.3c0.2,0,0.3,0.1,0.3,0.3l0.4,7.3L17.5,38.1z M19.3,38.1L19.3,38.1
	c0,0.2-0.2,0.4-0.4,0.4c-0.2,0-0.4-0.2-0.4-0.4l-0.3-4.7l0.3-8.9c0-0.2,0.2-0.4,0.4-0.4c0.2,0,0.4,0.2,0.4,0.4l0.4,8.9L19.3,38.1z
	 M21.1,38L21.1,38c0,0.2-0.2,0.4-0.4,0.4c-0.2,0-0.4-0.2-0.4-0.4L20,33.4l0.3-9.7c0-0.2,0.2-0.4,0.4-0.4c0.2,0,0.4,0.2,0.4,0.4
	l0.3,9.7L21.1,38z M23,38L23,38c0,0.2-0.2,0.4-0.4,0.4c-0.2,0-0.4-0.2-0.4-0.4l-0.3-4.6l0.3-10c0-0.2,0.2-0.4,0.4-0.4
	c0.2,0,0.4,0.2,0.4,0.4l0.3,10L23,38z M24.8,38L24.8,38c0,0.3-0.2,0.5-0.5,0.5c-0.3,0-0.5-0.2-0.5-0.5l-0.3-4.5l0.3-9.7
	c0-0.3,0.2-0.5,0.5-0.5c0.3,0,0.5,0.2,0.5,0.5l0.3,9.7L24.8,38z M26.7,37.9L26.7,37.9c0,0.3-0.2,0.5-0.5,0.5c-0.3,0-0.5-0.2-0.5-0.5
	l-0.2-4.5l0.2-9.4c0-0.3,0.2-0.5,0.5-0.5c0.3,0,0.5,0.2,0.5,0.5l0.3,9.4L26.7,37.9z M28.6,37.9L28.6,37.9c0,0.3-0.3,0.6-0.6,0.6
	c-0.3,0-0.6-0.3-0.6-0.6c0,0-0.2-4.5-0.2-4.5l0.2-11.2c0-0.3,0.3-0.6,0.6-0.6c0.3,0,0.6,0.2,0.6,0.6l0.2,11.2L28.6,37.9z M30.5,37.8
	L30.5,37.8c0,0.3-0.3,0.6-0.6,0.6c-0.3,0-0.6-0.3-0.6-0.6l-0.2-4.4l0.2-12.2c0-0.3,0.3-0.6,0.6-0.6c0.3,0,0.6,0.3,0.6,0.6l0.3,12.2
	L30.5,37.8z M46.6,38.5c-0.1,0-15,0-15,0c-0.3,0-0.6-0.3-0.6-0.6V20.6c0-0.3,0.1-0.5,0.5-0.6c1.1-0.4,2.2-0.6,3.5-0.6
	c5,0,9.1,3.8,9.5,8.7c0.6-0.3,1.4-0.4,2.1-0.4c3,0,5.4,2.4,5.4,5.4C52,36,49.6,38.5,46.6,38.5z"/>
</svg>
