<?php echo '<?xml version="1.0" encoding="utf-8"?>';?>
<!-- Generator: Adobe Illustrator 18.1.0, SVG Export Plug-In . SVG Version: 6.00 Build 0)  -->
<!DOCTYPE svg PUBLIC "-//W3C//DTD SVG 1.1//EN" "http://www.w3.org/Graphics/SVG/1.1/DTD/svg11.dtd">
<svg version="1.1" id="Layer_1" xmlns="http://www.w3.org/2000/svg" xmlns:xlink="http://www.w3.org/1999/xlink" x="0px" y="0px"
	 viewBox="0 0 60 60" enable-background="new 0 0 60 60" xml:space="preserve">
<path d="M30,0C13.4,0,0,13.4,0,30c0,16.6,13.4,30,30,30s30-13.4,30-30C60,13.4,46.6,0,30,0z M39.6,45.2
	c-1.5,0.7-2.8,1.2-3.9,1.4c-1.2,0.3-2.5,0.4-3.8,0.4c-1.6,0-2.9-0.2-4.1-0.6c-1.2-0.4-2.2-1-3.1-1.7c-0.8-0.7-1.4-1.5-1.8-2.3
	c-0.3-0.8-0.5-2-0.5-3.6V26.9h-3.8v-4.8c1.3-0.4,2.5-1.1,3.4-1.9c1-0.8,1.7-1.8,2.3-2.9c0.6-1.1,1-2.6,1.2-4.3h4.8v8.6h8.1v5.3h-8.1
	v8.7c0,2,0.1,3.2,0.3,3.8c0.2,0.6,0.6,1,1.2,1.3c0.8,0.5,1.6,0.7,2.6,0.7c1.7,0,3.4-0.6,5.1-1.7V45.2z"/>
</svg>
