<?php echo '<?xml version="1.0" encoding="utf-8"?>';?>
<!-- Generator: Adobe Illustrator 18.1.0, SVG Export Plug-In . SVG Version: 6.00 Build 0)  -->
<!DOCTYPE svg PUBLIC "-//W3C//DTD SVG 1.1//EN" "http://www.w3.org/Graphics/SVG/1.1/DTD/svg11.dtd">
<svg version="1.1" id="Layer_1" xmlns="http://www.w3.org/2000/svg" xmlns:xlink="http://www.w3.org/1999/xlink" x="0px" y="0px"
	 viewBox="0 0 60 60" enable-background="new 0 0 60 60" xml:space="preserve">
<path d="M30,0C13.4,0,0,13.4,0,30c0,16.6,13.4,30,30,30c16.6,0,30-13.4,30-30C60,13.4,46.6,0,30,0z M13,30
	c0-2.5,0.5-4.8,1.5-6.9l8.1,22.2C16.9,42.6,13,36.7,13,30z M30,47c-1.7,0-3.3-0.2-4.8-0.7l5.1-14.8l5.2,14.3c0,0.1,0.1,0.2,0.1,0.2
	C33.9,46.7,32,47,30,47z M32.3,22c1-0.1,1.9-0.2,1.9-0.2c0.9-0.1,0.8-1.5-0.1-1.4c0,0-2.8,0.2-4.5,0.2c-1.7,0-4.5-0.2-4.5-0.2
	c-0.9-0.1-1,1.3-0.1,1.4c0,0,0.9,0.1,1.8,0.2l2.7,7.3l-3.7,11.2L19.6,22c1-0.1,1.9-0.2,1.9-0.2c0.9-0.1,0.8-1.5-0.1-1.4
	c0,0-2.8,0.2-4.5,0.2c-0.3,0-0.7,0-1.1,0C18.8,16,24.1,13,30,13c4.4,0,8.5,1.7,11.5,4.5c-0.1,0-0.1,0-0.2,0c-1.7,0-2.9,1.5-2.9,3
	c0,1.4,0.8,2.6,1.7,4c0.6,1.1,1.4,2.6,1.4,4.7c0,1.5-0.4,3.3-1.3,5.5l-1.7,5.7L32.3,22z M38.6,44.7l5.2-15c1-2.4,1.3-4.4,1.3-6.1
	c0-0.6,0-1.2-0.1-1.8C46.3,24.3,47,27,47,30C47,36.3,43.6,41.8,38.6,44.7z"/>
</svg>
