<?php echo '<?xml version="1.0" encoding="utf-8"?>';?>
<!-- Generator: Adobe Illustrator 18.1.0, SVG Export Plug-In . SVG Version: 6.00 Build 0)  -->
<!DOCTYPE svg PUBLIC "-//W3C//DTD SVG 1.1//EN" "http://www.w3.org/Graphics/SVG/1.1/DTD/svg11.dtd">
<svg version="1.1" id="Layer_1" xmlns="http://www.w3.org/2000/svg" xmlns:xlink="http://www.w3.org/1999/xlink" x="0px" y="0px"
	 viewBox="0 0 60 60" enable-background="new 0 0 60 60" xml:space="preserve">
<g>
	<polygon points="25.5,36.6 36.6,30 25.5,23.5 	"/>
	<path d="M30,0C13.4,0,0,13.4,0,30c0,16.6,13.4,30,30,30c16.6,0,30-13.4,30-30C60,13.4,46.6,0,30,0z M47,36.1
		c0,5.9-5.9,5.9-5.9,5.9H18.9c-5.9,0-5.9-5.9-5.9-5.9V23.9c0-5.9,5.9-5.9,5.9-5.9h22.3c5.9,0,5.9,5.9,5.9,5.9V36.1z"/>
</g>
</svg>
